<?xml version="1.0" encoding="utf-8"?>
<!-- Generator: Adobe Illustrator 24.2.0, SVG Export Plug-In . SVG Version: 6.00 Build 0)  -->
<svg version="1.1" id="Capa_1" xmlns="http://www.w3.org/2000/svg" xmlns:xlink="http://www.w3.org/1999/xlink" x="0px" y="0px"
	 viewBox="0 0 490.9 490.9" style="enable-background:new 0 0 490.9 490.9;" xml:space="preserve">
<style type="text/css">
	.st0{fill:#4CAF50;}
	.st1{fill:#FAFAFA;}
</style>
<path class="st0" d="M245.4,0C109.9,0,0,109.9,0,245.5C0,381,109.9,490.9,245.5,490.9c135.5,0,245.4-109.9,245.4-245.4
	C490.7,109.9,380.9,0.1,245.4,0z"/>
<path class="st1" d="M309.4,384c5.9,0,10.7-4.8,10.7-10.6c0-2.8-1.1-5.6-3.1-7.6L196.5,245.4L317,124.9c4.1-4.2,4-11-0.3-15.1
	c-4.1-4-10.7-4-14.8,0l-128,128c-4.2,4.2-4.2,10.9,0,15.1l128,128C303.9,382.9,306.6,384,309.4,384z"/>
</svg>
